<?xml version="1.0" encoding="UTF-8" standalone="no"?>
<!DOCTYPE svg PUBLIC "-//W3C//DTD SVG 1.1//EN" "http://www.w3.org/Graphics/SVG/1.1/DTD/svg11.dtd">
<svg xmlns="http://www.w3.org/2000/svg" xmlns:xlink="http://www.w3.org/1999/xlink" version="1.1" preserveAspectRatio="xMidYMid meet" viewBox="0 0 300 300" width="512" height="512"><defs><path d="M120.01 39.43C81.07 39.43 49.5 74.19 49.5 117.07C49.5 118.69 49.54 120.3 49.64 121.89C21.52 128.41 0.84 150.25 0.84 176.19C0.84 176.19 0.84 176.19 0.84 176.19C0.84 207.27 30.53 232.47 67.16 232.47C83.79 232.47 216.88 232.47 233.51 232.47C270.14 232.47 299.84 207.27 299.84 176.19C299.84 176.19 299.84 176.19 299.84 176.19C299.84 149.08 277.27 126.46 247.21 121.11C244.52 91.72 221.99 68.79 194.6 68.79C188.58 68.79 182.8 69.9 177.41 71.93C164.61 52.26 143.67 39.43 120.01 39.43Z" id="a4osNulBy"/><radialGradient id="gradientd66qz5vAun" gradientUnits="userSpaceOnUse" cx="150.34" cy="39.43" dx="150.34" dy="232.47" r="193.04"><stop style="stop-color: #00d9ff;stop-opacity: 1" offset="0%"/><stop style="stop-color: #a89cc8;stop-opacity: 1" offset="100%"/></radialGradient></defs><g><g><use xlink:href="#a4osNulBy" opacity="1" fill="url(#gradientd66qz5vAun)"/></g></g></svg>