<?xml version="1.0" encoding="UTF-8" standalone="no"?>
<!DOCTYPE svg PUBLIC "-//W3C//DTD SVG 1.1//EN" "http://www.w3.org/Graphics/SVG/1.1/DTD/svg11.dtd">
<svg version="1.1" xmlns="http://www.w3.org/2000/svg" xmlns:xlink="http://www.w3.org/1999/xlink" preserveAspectRatio="xMidYMid meet" viewBox="0 0 640 640" width="640" height="640"><defs><path d="M239.91 -132.45C137.07 -132.45 53.68 -57.45 53.68 35.08C53.68 38.56 53.8 42.05 54.06 45.47C-20.23 59.54 -74.85 106.67 -74.85 162.64C-74.85 162.64 -74.85 162.64 -74.85 162.64C-74.85 229.71 3.57 284.09 100.31 284.09C144.25 284.09 495.75 284.09 539.69 284.09C636.41 284.09 714.85 229.71 714.85 162.64C714.85 162.64 714.85 162.64 714.85 162.64C714.85 104.15 655.24 55.33 575.87 43.79C568.75 -19.62 509.26 -69.11 436.91 -69.11C421.01 -69.11 405.75 -66.71 391.51 -62.32C357.69 -104.77 302.4 -132.45 239.91 -132.45Z" id="a1mn9cWhHO"></path><radialGradient id="gradientdOOi7IGmY" gradientUnits="userSpaceOnUse" cx="320" cy="-132.45" dx="331.97" dy="431.29" r="563.87"><stop style="stop-color: #228ee6;stop-opacity: 1" offset="0%"></stop><stop style="stop-color: #e4d6ed;stop-opacity: 1" offset="100%"></stop></radialGradient></defs><g><g><g><use xlink:href="#a1mn9cWhHO" opacity="1" fill="url(#gradientdOOi7IGmY)"></use></g></g></g></svg>